<svg xmlns="http://www.w3.org/2000/svg" id="prefix__Group_6975" width="29.218" height="29.218" data-name="Group 6975" viewBox="0 0 29.218 29.218">
    <path id="prefix__Path_8480" fill="none" d="M14.609 0A14.609 14.609 0 1 1 0 14.609 14.609 14.609 0 0 1 14.609 0z" data-name="Path 8480" opacity="0.998"/>
    <g id="prefix__Discover_Icon" data-name="Discover Icon" transform="translate(8 6.937)">
        <path id="prefix___17676289951537184110" fill="#58595b" d="M30.6 14.588l-.929-10.317a.546.546 0 0 0-.544-.5h-1.91v-.859a2.912 2.912 0 1 0-5.824 0v.862h-1.912a.546.546 0 0 0-.544.5l-.93 10.357a.546.546 0 0 0 .544.6h11.508a.546.546 0 0 0 .546-.546.558.558 0 0 0-.005-.097zM22.486 2.912a1.819 1.819 0 1 1 3.638 0v.862h-3.638zm-3.337 11.219l.832-9.264h1.412v.977a.546.546 0 1 0 1.093 0v-.978h3.638v.977a.546.546 0 0 0 1.093 0v-.977h1.411l.832 9.264H19.149z" data-name="17676289951537185000" transform="translate(-18.005)"/>
    </g>
</svg>
