<svg xmlns="http://www.w3.org/2000/svg" id="prefix__Group_6975" width="29.218" height="29.218" data-name="Group 6975" viewBox="0 0 29.218 29.218">
    <path id="prefix__Path_8480" d="M14.609 0A14.609 14.609 0 1 1 0 14.609 14.609 14.609 0 0 1 14.609 0z" data-name="Path 8480" style="fill:none;opacity:.998"/>
    <g id="prefix__M-PESA_icon" data-name="M-PESA icon" transform="translate(11 6.221)">
        <path id="prefix__Path_8491" d="M719.909 778.834a1.335 1.335 0 0 1-1.332 1.333h-2.716a1.335 1.335 0 0 1-1.332-1.333v-4.571a1.333 1.333 0 0 1 1.332-1.331h2.716a1.333 1.333 0 0 1 1.332 1.331zm.792-6.436l.005-.065v-2.009a.584.584 0 0 0-1.161 0v.911a1.3 1.3 0 0 0-.167-.011h-4.315a1.333 1.333 0 0 0-1.333 1.333V785.3a1.334 1.334 0 0 0 1.333 1.335h4.315a1.332 1.332 0 0 0 1.328-1.335v-12.744a1.544 1.544 0 0 0-.006-.158" data-name="Path 8491" transform="translate(-713.732 -769.804)" style="fill:#58595b"/>
    </g>
</svg>
