<svg xmlns="http://www.w3.org/2000/svg" id="prefix__Group_6975" width="29.218" height="29.218" data-name="Group 6975" viewBox="0 0 29.218 29.218">
    <path id="prefix__Path_8480" d="M14.609 0A14.609 14.609 0 1 1 0 14.609 14.609 14.609 0 0 1 14.609 0z" data-name="Path 8480" style="fill:none;opacity:.998"/>
    <g id="prefix__Account_icon" data-name="Account icon" transform="translate(7 6.937)">
        <path id="prefix__Path_8493" d="M14.121 11.872a4.348 4.348 0 1 0-5.024 0A7.076 7.076 0 0 0 4 18.656a.543.543 0 0 0 .543.543h14.13a.543.543 0 0 0 .543-.543 7.076 7.076 0 0 0-5.1-6.784zM8.348 8.33a3.261 3.261 0 1 1 3.261 3.261A3.261 3.261 0 0 1 8.348 8.33zm-3.237 9.783a5.986 5.986 0 0 1 5.954-5.435h1.087a5.986 5.986 0 0 1 5.954 5.435z" data-name="Path 8493" transform="translate(-4 -3.976)" style="fill:#58595b"/>
    </g>
</svg>
